{"title":"Dragon.Blade.2015.CHINESE.1080p.BluRay.x264.DTS-RARBG","uid":11999608,"size":12235630330,"categoryP":"video","categoryS":"hd___movies","magnet":"?xt=urn:btih:f85c0f004d20234974888278dc4851db4e15f00a&amp;dn=Dragon.Blade.2015.CHINESE.1080p.BluRay.x264.DTS-RARBG&amp;tr=udp%3A%2F%2Ftracker.openbittorrent.com%3A80&amp;tr=udp%3A%2F%2Fopen.demonii.com%3A1337&amp;tr=udp%3A%2F%2Ftracker.coppersurfer.tk%3A6969&amp;tr=udp%3A%2F%2Fexodus.desync.com%3A6969","seeders":0,"leechers":3,"uploader":"makintos13","files":5,"time":1433736773,"description":"screens:\n &lt;a href=&quot;\nhttp://imgmak.com/3b&quot; rel=&quot;nofollow&quot; target=&quot;_NEW&quot;&gt;\nhttp://imgmak.com/3b&lt;/a&gt;\n\nVideo\nID                                       : 1\nFormat                                   : AVC\nFormat/Info                              : Advanced Video Codec\nFormat profile                           : &lt;a class=&quot;__cf_email__&quot; href=&quot;/cdn-cgi/l/email-protection&quot; data-cfemail=&quot;7b33121c133b374f554a&quot;&gt;[email&amp;#160;protected]&lt;/a&gt;&lt;script data-cfhash='f9e31' type=&quot;text/javascript&quot;&gt;\n/* &lt;![CDATA[ */!function(){try{var t=&quot;currentScript&quot;in document?document.currentScript:function(){for(var t=document.getElementsByTagName(&quot;script&quot;),e=t.length;e--;)if(t[e].getAttribute(&quot;data-cfhash&quot;))return t[e]}();if(t&amp;&amp;t.previousSibling){var e,r,n,i,c=t.previousSibling,a=c.getAttribute(&quot;data-cfemail&quot;);if(a){for(e=&quot;&quot;,r=parseInt(a.substr(0,2),16),n=2;a.length-n;n+=2)i=parseInt(a.substr(n,2),16)^r,e+=String.fromCharCode(i);e=document.createTextNode(e),c.parentNode.replaceChild(e,c)}t.parentNode.removeChild(t);}}catch(u){}}()/* ]]&gt; */&lt;/script&gt;\nFormat settings, CABAC                   : Yes\nFormat settings, ReFrames                : 4 frames\nCodec ID                                 : V_MPEG4/ISO/AVC\nDuration                                 : 2h 7mn\nBit rate                                 : 11.5 Mbps\nWidth                                    : 1 920 pixels\nHeight                                   : 804 pixels\nDisplay aspect ratio                     : 2.40:1\nFrame rate mode                          : Constant\nFrame rate                               : 24.000 fps\nColor space                              : YUV\nChroma subsampling                       : 4:2:0\nBit depth                                : 8 bits\nScan type                                : Progressive\nBits/(Pixel*Frame)                       : 0.310\nStream size                              : 9.83 GiB (86%)\nTitle                                    : Dragon.Blade.2015.CHINESE.1080p.BluRay.x264.DTS-RARBG\nWriting library                          : x264 core 144 r2525M 40bb568\nEncoding settings                        : cabac=1 / ref=4 / deblock=1:0:0 / analyse=0x3:0x113 / me=umh / subme=7 / psy=1 / psy_rd=1.00:0.15 / mixed_ref=1 / me_range=16 / chroma_me=1 / trellis=1 / 8x8dct=1 / cqm=0 / deadzone=21,11 / fast_pskip=1 / chroma_qp_offset=-3 / threads=40 / lookahead_threads=8 / sliced_threads=0 / nr=0 / decimate=1 / interlaced=0 / bluray_compat=0 / constrained_intra=0 / bframes=3 / b_pyramid=2 / b_adapt=2 / b_bias=0 / direct=3 / weightb=1 / open_gop=0 / weightp=2 / keyint=250 / keyint_min=25 / scenecut=40 / intra_refresh=0 / rc_lookahead=50 / rc=abr / mbtree=1 / bitrate=11500 / ratetol=1.0 / qcomp=0.60 / qpmin=0 / qpmax=69 / qpstep=4 / ip_ratio=1.40 / aq=1:1.00\nLanguage                                 : Chinese\nDefault                                  : Yes\nForced                                   : No\n\nAudio\nID                                       : 2\nFormat                                   : DTS\nFormat/Info                              : Digital Theater Systems\nMode                                     : 16\nFormat settings, Endianness              : Big\nCodec ID                                 : A_DTS\nDuration                                 : 2h 7mn\nBit rate mode                            : Constant\nBit rate                                 : 1 509 Kbps\nChannel(s)                               : 6 channels\nChannel positions                        : Front: L C R, Side: L R, LFE\nSampling rate                            : 48.0 KHz\nBit depth                                : 16 bits\nCompression mode                         : Lossy\nStream size                              : 1.34 GiB (12%)\nTitle                                    : Dragon.Blade.2015.CHINESE.1080p.BluRay.x264.DTS-RARBG\nLanguage                                 : Chinese\nDefault                                  : Yes\nForced                                   : No\n\nText\nID                                       : 3\nFormat                                   : UTF-8\nCodec ID                                 : S_TEXT/UTF8\nCodec ID/Info                            : UTF-8 Plain Text\nLanguage                                 : English\nDefault                                  : Yes\nForced                                   : Yes\n\nMenu\n00:00:00.000                             : en:Chapter 01\n00:06:37.291                             : en:Chapter 02\n00:13:24.583                             : en:Chapter 03\n00:23:58.875                             : en:Chapter 04\n00:33:57.041                             : en:Chapter 05\n00:40:30.375                             : en:Chapter 06\n00:50:12.583                             : en:Chapter 07\n00:59:04.375                             : en:Chapter 08\n01:04:50.500                             : en:Chapter 09\n01:14:54.541                             : en:Chapter 10\n01:19:41.291                             : en:Chapter 11\n01:26:44.416                             : en:Chapter 12\n01:32:30.333                             : en:Chapter 13\n01:38:30.250                             : en:Chapter 14\n01:45:03.875                             : en:Chapter 15\n01:52:01.541                             : en:Chapter 16","torrent":{"xt":"urn:btih:f85c0f004d20234974888278dc4851db4e15f00a","amp;dn":"Dragon.Blade.2015.CHINESE.1080p.BluRay.x264.DTS-RARBG","amp;tr":["udp%3A%2F%2Ftracker.openbittorrent.com%3A80","udp%3A%2F%2Fopen.demonii.com%3A1337","udp%3A%2F%2Ftracker.coppersurfer.tk%3A6969","udp%3A%2F%2Fexodus.desync.com%3A6969"],"infoHash":"f85c0f004d20234974888278dc4851db4e15f00a","infoHashBuffer":{"type":"Buffer","data":[248,92,15,0,77,32,35,73,116,136,130,120,220,72,81,219,78,21,240,10]},"announce":[],"urlList":[]}}